<svg id="svg" version="1.1" xmlns="http://www.w3.org/2000/svg" xmlns:xlink="http://www.w3.org/1999/xlink" width="400" height="400" viewBox="0, 0, 400,400"><g id="svgg"><path id="path0" d="M24.800 20.400 C 24.800 20.620,24.260 20.800,23.600 20.800 C 22.940 20.800,22.400 20.980,22.400 21.200 C 22.400 21.420,22.040 21.600,21.600 21.600 C 21.160 21.600,20.800 21.780,20.800 22.000 C 20.800 22.220,20.440 22.400,20.000 22.400 C 19.560 22.400,19.200 22.580,19.200 22.800 C 19.200 23.020,18.880 23.200,18.488 23.200 C 18.097 23.200,17.517 23.560,17.200 24.000 C 16.883 24.440,16.379 24.800,16.080 24.800 C 15.202 24.800,10.422 30.109,10.407 31.100 C 10.403 31.375,10.220 31.600,10.000 31.600 C 9.780 31.600,9.600 31.849,9.600 32.154 C 9.600 32.459,9.331 33.224,9.002 33.854 C 8.674 34.484,8.404 35.495,8.402 36.100 C 8.401 36.705,8.220 37.200,8.000 37.200 C 7.747 37.200,7.600 40.006,7.600 44.818 C 7.600 53.214,7.580 53.283,4.744 54.744 C 4.163 55.043,3.444 55.763,3.147 56.344 C 2.849 56.925,2.333 57.670,2.000 58.000 C 0.088 59.895,0.200 51.036,0.200 200.000 C 0.200 322.846,0.270 339.214,0.800 340.233 C 1.130 340.867,1.895 341.911,2.500 342.552 C 3.105 343.194,3.600 343.932,3.600 344.192 C 3.600 344.452,4.095 344.920,4.700 345.232 C 7.586 346.722,7.600 346.769,7.600 355.182 C 7.600 359.994,7.747 362.800,8.000 362.800 C 8.220 362.800,8.401 363.295,8.402 363.900 C 8.404 364.505,8.674 365.516,9.002 366.146 C 9.331 366.776,9.600 367.541,9.600 367.846 C 9.600 368.151,9.780 368.400,10.000 368.400 C 10.220 368.400,10.403 368.625,10.407 368.900 C 10.422 369.891,15.202 375.200,16.080 375.200 C 16.379 375.200,16.883 375.560,17.200 376.000 C 17.517 376.440,18.097 376.800,18.488 376.800 C 18.880 376.800,19.200 376.980,19.200 377.200 C 19.200 377.420,19.560 377.600,20.000 377.600 C 20.440 377.600,20.800 377.780,20.800 378.000 C 20.800 378.220,21.160 378.400,21.600 378.400 C 22.040 378.400,22.400 378.580,22.400 378.800 C 22.400 379.020,22.940 379.200,23.600 379.200 C 24.260 379.200,24.800 379.380,24.800 379.600 C 24.800 380.140,37.466 380.140,37.800 379.600 C 37.936 379.380,38.361 379.200,38.744 379.200 C 39.619 379.200,41.593 378.301,41.597 377.900 C 41.599 377.735,41.960 377.600,42.400 377.600 C 42.840 377.600,43.200 377.420,43.200 377.200 C 43.200 376.980,43.520 376.800,43.912 376.800 C 44.303 376.800,44.883 376.440,45.200 376.000 C 45.517 375.560,46.031 375.200,46.341 375.200 C 46.959 375.200,50.400 371.928,50.400 371.341 C 50.400 371.141,50.760 370.717,51.200 370.400 C 51.640 370.083,52.000 369.503,52.000 369.112 C 52.000 368.720,52.180 368.400,52.400 368.400 C 52.620 368.400,52.800 368.040,52.800 367.600 C 52.800 367.160,52.980 366.800,53.200 366.800 C 53.420 366.800,53.600 366.440,53.600 366.000 C 53.600 365.560,53.780 365.200,54.000 365.200 C 54.220 365.200,54.400 364.671,54.400 364.024 C 54.400 363.377,54.580 362.736,54.800 362.600 C 55.044 362.449,55.200 359.428,55.200 354.874 L 55.200 347.394 56.613 346.097 C 57.391 345.384,58.170 344.800,58.346 344.800 C 58.521 344.800,58.919 344.305,59.230 343.700 C 60.644 340.946,50.206 341.200,161.888 341.200 C 236.065 341.200,262.682 341.081,263.326 340.746 C 267.894 338.375,268.801 332.681,265.341 328.100 C 263.207 325.274,264.761 325.422,234.824 325.200 L 207.849 325.000 207.290 321.600 C 205.733 312.130,200.672 305.472,191.467 300.784 C 188.029 299.034,186.958 297.751,186.454 294.782 C 184.146 281.173,176.679 275.014,161.466 274.172 C 155.383 273.835,155.767 274.288,156.297 268.073 C 158.597 241.139,138.479 226.259,119.200 240.633 C 112.751 245.441,110.801 245.181,108.465 239.200 C 105.965 232.799,104.800 224.073,104.800 211.754 C 104.800 192.713,101.839 178.468,95.621 167.600 C 95.055 166.610,94.358 165.343,94.073 164.784 C 89.564 155.947,77.182 146.419,67.000 143.950 C 65.020 143.470,63.174 143.020,62.898 142.950 C 62.499 142.849,62.416 135.857,62.498 108.912 L 62.600 75.000 67.600 74.800 C 73.081 74.581,74.305 74.179,76.142 71.995 C 78.259 69.480,79.086 64.087,77.600 62.492 C 77.160 62.020,76.800 61.458,76.800 61.244 C 76.800 61.029,76.440 60.740,76.000 60.600 C 75.560 60.460,75.200 60.207,75.200 60.037 C 75.200 59.177,72.775 58.800,67.242 58.800 C 61.259 58.800,59.600 58.394,59.600 56.929 C 59.600 56.445,58.510 55.306,56.660 53.856 L 55.200 52.711 55.200 45.179 C 55.200 40.589,55.044 37.551,54.800 37.400 C 54.580 37.264,54.400 36.623,54.400 35.976 C 54.400 35.329,54.220 34.800,54.000 34.800 C 53.780 34.800,53.600 34.440,53.600 34.000 C 53.600 33.560,53.420 33.200,53.200 33.200 C 52.980 33.200,52.800 32.840,52.800 32.400 C 52.800 31.960,52.620 31.600,52.400 31.600 C 52.180 31.600,52.000 31.280,52.000 30.888 C 52.000 30.497,51.640 29.917,51.200 29.600 C 50.760 29.283,50.400 28.859,50.400 28.659 C 50.400 28.072,46.959 24.800,46.341 24.800 C 46.031 24.800,45.517 24.440,45.200 24.000 C 44.883 23.560,44.303 23.200,43.912 23.200 C 43.520 23.200,43.200 23.020,43.200 22.800 C 43.200 22.580,42.840 22.400,42.400 22.400 C 41.960 22.400,41.599 22.265,41.597 22.100 C 41.593 21.699,39.619 20.800,38.744 20.800 C 38.361 20.800,37.936 20.620,37.800 20.400 C 37.652 20.160,34.996 20.000,31.176 20.000 C 27.192 20.000,24.800 20.150,24.800 20.400 M362.200 20.400 C 362.064 20.620,361.639 20.800,361.256 20.800 C 360.381 20.800,358.407 21.699,358.403 22.100 C 358.401 22.265,358.040 22.400,357.600 22.400 C 357.160 22.400,356.800 22.580,356.800 22.800 C 356.800 23.020,356.480 23.200,356.088 23.200 C 355.697 23.200,355.117 23.560,354.800 24.000 C 354.483 24.440,353.969 24.800,353.659 24.800 C 353.041 24.800,349.600 28.072,349.600 28.659 C 349.600 28.859,349.240 29.283,348.800 29.600 C 348.360 29.917,348.000 30.497,348.000 30.888 C 348.000 31.280,347.820 31.600,347.600 31.600 C 347.380 31.600,347.200 31.960,347.200 32.400 C 347.200 32.840,347.020 33.200,346.800 33.200 C 346.580 33.200,346.400 33.560,346.400 34.000 C 346.400 34.440,346.220 34.800,346.000 34.800 C 345.780 34.800,345.600 35.329,345.600 35.976 C 345.600 36.623,345.420 37.264,345.200 37.400 C 344.956 37.551,344.801 40.568,344.803 45.124 L 344.805 52.600 343.307 53.900 C 342.483 54.615,341.672 55.200,341.504 55.200 C 341.337 55.200,341.200 55.443,341.200 55.741 C 341.200 56.038,340.658 56.848,339.997 57.541 L 338.793 58.800 238.170 58.800 C 163.950 58.800,137.318 58.919,136.674 59.254 C 132.106 61.625,131.199 67.319,134.659 71.900 C 136.867 74.823,131.696 74.577,195.566 74.800 L 252.932 75.000 253.620 77.867 C 254.848 82.979,256.075 84.957,261.063 89.866 C 263.558 92.323,265.600 94.505,265.600 94.716 C 265.600 94.927,264.719 97.153,263.642 99.663 C 254.037 122.048,254.755 135.175,266.000 142.765 C 274.204 148.303,280.544 148.089,290.909 141.925 C 296.600 138.541,297.050 138.738,302.159 146.853 C 303.457 148.914,305.218 151.703,306.074 153.051 C 309.096 157.811,312.929 160.831,318.235 162.633 C 320.446 163.383,329.672 163.525,332.272 162.848 C 333.112 162.629,334.610 162.394,335.600 162.325 L 337.400 162.200 337.400 226.600 L 337.400 291.000 336.200 290.879 C 334.430 290.701,330.624 289.291,327.209 287.547 C 321.988 284.880,317.907 285.909,315.561 290.484 C 312.283 296.876,318.108 302.173,332.400 305.798 L 337.400 307.066 337.400 316.033 L 337.400 325.000 332.400 325.200 C 327.124 325.411,325.848 325.792,324.147 327.662 C 321.801 330.241,320.785 335.828,322.360 337.483 C 322.822 337.969,323.200 338.542,323.200 338.756 C 323.200 338.971,323.560 339.260,324.000 339.400 C 324.440 339.540,324.800 339.793,324.800 339.963 C 324.800 340.825,327.227 341.200,332.815 341.200 L 338.793 341.200 339.997 342.459 C 340.658 343.152,341.200 343.962,341.200 344.259 C 341.200 344.557,341.374 344.800,341.587 344.800 C 341.799 344.800,342.609 345.384,343.387 346.097 L 344.800 347.394 344.800 354.874 C 344.800 359.428,344.956 362.449,345.200 362.600 C 345.420 362.736,345.600 363.377,345.600 364.024 C 345.600 364.671,345.780 365.200,346.000 365.200 C 346.220 365.200,346.400 365.560,346.400 366.000 C 346.400 366.440,346.580 366.800,346.800 366.800 C 347.020 366.800,347.200 367.160,347.200 367.600 C 347.200 368.040,347.380 368.400,347.600 368.400 C 347.820 368.400,348.000 368.720,348.000 369.112 C 348.000 369.503,348.360 370.083,348.800 370.400 C 349.240 370.717,349.600 371.125,349.600 371.307 C 349.600 371.870,353.079 375.200,353.668 375.200 C 353.973 375.200,354.483 375.560,354.800 376.000 C 355.117 376.440,355.697 376.800,356.088 376.800 C 356.480 376.800,356.800 376.980,356.800 377.200 C 356.800 377.420,357.160 377.600,357.600 377.600 C 358.040 377.600,358.401 377.735,358.403 377.900 C 358.407 378.301,360.381 379.200,361.256 379.200 C 361.639 379.200,362.064 379.380,362.200 379.600 C 362.534 380.140,375.200 380.140,375.200 379.600 C 375.200 379.380,375.740 379.200,376.400 379.200 C 377.060 379.200,377.600 379.020,377.600 378.800 C 377.600 378.580,377.960 378.400,378.400 378.400 C 378.840 378.400,379.200 378.220,379.200 378.000 C 379.200 377.780,379.560 377.600,380.000 377.600 C 380.440 377.600,380.800 377.420,380.800 377.200 C 380.800 376.980,381.120 376.800,381.512 376.800 C 381.903 376.800,382.483 376.440,382.800 376.000 C 383.117 375.560,383.621 375.200,383.920 375.200 C 384.798 375.200,389.578 369.891,389.593 368.900 C 389.597 368.625,389.780 368.400,390.000 368.400 C 390.220 368.400,390.400 368.151,390.400 367.846 C 390.400 367.541,390.669 366.776,390.998 366.146 C 391.326 365.516,391.596 364.505,391.598 363.900 C 391.599 363.295,391.780 362.800,392.000 362.800 C 392.253 362.800,392.400 359.994,392.400 355.182 C 392.400 346.786,392.420 346.717,395.256 345.256 C 395.837 344.957,396.556 344.237,396.853 343.656 C 397.151 343.075,397.667 342.330,398.000 342.000 C 399.912 340.105,399.800 348.964,399.800 200.000 C 399.800 51.036,399.912 59.895,398.000 58.000 C 397.667 57.670,397.151 56.925,396.853 56.344 C 396.556 55.763,395.837 55.043,395.256 54.744 C 392.420 53.283,392.400 53.214,392.400 44.818 C 392.400 40.006,392.253 37.200,392.000 37.200 C 391.780 37.200,391.599 36.705,391.598 36.100 C 391.596 35.495,391.326 34.484,390.998 33.854 C 390.669 33.224,390.400 32.459,390.400 32.154 C 390.400 31.849,390.220 31.600,390.000 31.600 C 389.780 31.600,389.597 31.375,389.593 31.100 C 389.578 30.109,384.798 24.800,383.920 24.800 C 383.621 24.800,383.117 24.440,382.800 24.000 C 382.483 23.560,381.903 23.200,381.512 23.200 C 381.120 23.200,380.800 23.020,380.800 22.800 C 380.800 22.580,380.440 22.400,380.000 22.400 C 379.560 22.400,379.200 22.220,379.200 22.000 C 379.200 21.780,378.840 21.600,378.400 21.600 C 377.960 21.600,377.600 21.420,377.600 21.200 C 377.600 20.980,377.060 20.800,376.400 20.800 C 375.740 20.800,375.200 20.620,375.200 20.400 C 375.200 20.150,372.808 20.000,368.824 20.000 C 365.004 20.000,362.348 20.160,362.200 20.400 M34.778 36.789 C 38.137 38.503,39.200 40.970,39.200 47.057 L 39.200 51.617 31.300 51.508 L 23.400 51.400 23.400 46.600 C 23.400 37.959,28.482 33.577,34.778 36.789 M373.027 37.300 C 376.022 39.331,376.600 40.836,376.600 46.600 L 376.600 51.400 368.700 51.508 L 360.800 51.617 360.800 47.057 C 360.800 37.656,366.658 32.982,373.027 37.300 M101.400 59.271 C 92.643 64.156,99.869 78.556,108.793 74.004 C 112.567 72.078,115.060 64.918,112.800 62.492 C 112.360 62.020,112.000 61.458,112.000 61.244 C 112.000 61.029,111.640 60.740,111.200 60.600 C 110.760 60.460,110.400 60.207,110.400 60.037 C 110.400 58.909,103.154 58.292,101.400 59.271 M46.800 200.000 L 46.800 332.800 31.200 332.800 L 15.600 332.800 15.600 200.000 L 15.600 67.200 31.200 67.200 L 46.800 67.200 46.800 200.000 M384.400 200.000 L 384.400 332.800 368.800 332.800 L 353.200 332.800 353.200 200.000 L 353.200 67.200 368.800 67.200 L 384.400 67.200 384.400 200.000 M337.502 110.472 C 337.599 144.002,337.566 145.956,336.902 146.154 C 331.727 147.694,323.337 148.441,321.600 147.516 C 320.612 146.990,319.339 145.209,314.369 137.400 C 305.271 123.103,296.835 120.758,283.020 128.686 C 270.752 135.728,268.862 125.456,278.478 104.000 C 278.921 103.010,279.554 101.570,279.883 100.800 C 280.212 100.030,280.688 98.969,280.940 98.441 C 281.615 97.029,281.527 90.775,280.812 89.362 C 278.997 85.775,277.263 83.729,272.893 80.018 C 269.782 77.377,268.574 75.890,268.991 75.215 C 269.169 74.926,279.861 74.827,303.325 74.898 L 337.400 75.000 337.502 110.472 M170.600 110.344 C 168.619 111.302,145.024 134.898,144.419 136.526 C 142.913 140.575,143.973 142.720,150.949 149.741 C 154.167 152.981,156.800 155.792,156.800 155.988 C 156.800 156.183,154.171 159.011,150.957 162.272 C 143.942 169.390,142.916 171.464,144.423 175.474 C 145.052 177.146,168.639 200.718,170.600 201.635 C 174.607 203.507,176.720 202.474,184.165 195.001 C 189.362 189.785,190.101 189.180,190.712 189.644 C 191.090 189.932,193.793 192.572,196.718 195.511 C 206.757 205.600,206.470 205.668,222.944 189.281 C 239.892 172.422,239.772 172.932,229.300 162.216 C 226.165 159.008,223.600 156.188,223.600 155.949 C 223.600 155.710,225.898 153.239,228.707 150.457 C 236.220 143.017,236.840 141.963,236.210 137.697 C 235.937 135.851,235.602 135.471,223.668 123.489 C 206.528 106.279,206.961 106.392,196.782 116.448 C 193.803 119.392,191.064 122.042,190.696 122.338 C 190.104 122.814,189.338 122.197,183.982 116.938 C 176.275 109.370,174.462 108.476,170.600 110.344 M179.805 134.442 C 189.402 144.121,190.998 144.121,200.595 134.442 C 203.672 131.339,206.471 128.800,206.814 128.800 C 208.047 128.800,217.714 139.043,217.258 139.867 C 217.035 140.270,214.398 143.030,211.399 146.000 C 202.027 155.279,202.054 156.730,211.773 166.395 C 214.978 169.582,217.600 172.345,217.600 172.534 C 217.600 172.724,215.164 175.322,212.186 178.309 L 206.772 183.739 200.686 177.718 C 190.561 167.703,189.806 167.703,179.716 177.719 L 173.632 183.759 168.584 178.779 C 161.680 171.969,161.687 173.331,168.518 166.447 C 178.287 156.603,178.281 155.199,168.428 145.405 C 165.333 142.328,162.800 139.644,162.800 139.440 C 162.800 138.794,172.931 128.800,173.586 128.800 C 173.929 128.800,176.728 131.339,179.805 134.442 M68.200 160.821 C 77.601 165.373,84.494 176.119,87.816 191.400 C 88.775 195.814,89.177 201.157,89.199 209.800 C 89.259 233.347,93.029 247.868,100.971 255.141 C 107.341 260.976,116.773 260.941,125.480 255.050 C 127.147 253.923,129.242 252.505,130.136 251.900 C 137.252 247.083,142.000 254.640,140.771 268.828 C 139.515 283.321,144.118 288.632,158.600 289.400 C 169.165 289.960,170.109 290.683,171.642 299.400 C 172.864 306.346,176.832 310.671,186.800 315.924 C 189.257 317.218,191.787 320.995,192.076 323.800 L 192.200 325.000 127.400 325.000 L 62.600 325.000 62.499 241.868 L 62.398 158.736 63.699 159.004 C 64.415 159.151,66.440 159.969,68.200 160.821 M276.200 206.385 C 266.527 207.975,254.800 217.605,254.800 223.957 C 254.800 228.296,259.633 232.589,263.231 231.448 C 263.544 231.348,264.313 231.154,264.940 231.016 C 265.616 230.867,267.629 229.289,269.885 227.140 C 274.851 222.409,276.893 221.426,281.541 221.526 C 286.861 221.640,289.669 219.869,290.779 215.700 C 292.513 209.179,285.697 204.824,276.200 206.385 M187.369 213.936 C 182.920 216.017,181.629 222.952,183.402 235.230 C 184.746 244.534,186.452 246.900,191.815 246.900 C 197.660 246.900,200.657 241.695,198.794 234.779 C 198.550 233.872,198.311 229.948,198.263 226.059 C 198.186 219.807,198.080 218.802,197.352 217.394 C 195.527 213.861,190.931 212.269,187.369 213.936 M298.879 234.474 C 293.971 236.854,293.691 242.116,297.351 263.188 C 298.390 269.168,301.543 272.100,306.242 271.456 C 311.204 270.776,313.400 266.845,312.418 260.400 C 311.882 256.877,311.356 253.044,310.800 248.600 C 310.580 246.840,310.239 244.140,310.043 242.600 C 309.115 235.305,304.338 231.828,298.879 234.474 M239.473 245.380 C 238.416 245.757,236.385 247.512,232.873 251.087 C 229.092 254.934,227.138 256.599,225.200 257.624 L 222.600 259.000 216.463 258.911 C 209.654 258.811,208.052 259.227,206.514 261.491 C 202.963 266.720,205.198 272.139,211.623 273.872 C 223.918 277.191,238.255 270.630,247.909 257.267 C 252.392 251.062,246.564 242.851,239.473 245.380 M291.200 325.979 C 285.231 329.152,284.924 337.762,290.674 340.746 C 294.910 342.946,302.800 339.406,302.800 335.306 C 302.800 328.101,296.595 323.112,291.200 325.979 M39.200 352.951 C 39.200 360.597,36.704 364.000,31.094 364.000 C 26.057 364.000,23.536 360.745,23.276 353.903 C 23.045 347.864,22.255 348.400,31.387 348.400 L 39.200 348.400 39.200 352.951 M376.579 353.400 C 376.548 360.714,374.169 364.000,368.906 364.000 C 363.294 364.000,360.800 360.598,360.800 352.943 L 360.800 348.383 368.700 348.492 L 376.600 348.600 376.579 353.400 " stroke="none" fill="#040404" fill-rule="evenodd"></path><path id="path1" d="M78.400 67.951 C 78.400 69.665,77.430 71.649,75.931 73.000 C 73.639 75.066,73.145 75.200,67.803 75.200 L 62.795 75.200 62.898 108.900 L 63.000 142.600 64.000 142.707 C 72.430 143.604,84.762 151.171,90.641 159.052 C 91.276 159.903,91.895 160.690,92.017 160.800 C 92.740 161.452,94.633 164.549,96.806 168.634 C 99.123 172.990,102.146 181.704,103.247 187.200 C 104.461 193.263,104.425 192.780,105.579 217.800 C 105.954 225.912,106.255 228.747,107.194 233.000 C 107.437 234.100,107.739 235.497,107.864 236.105 C 107.990 236.713,108.251 237.308,108.446 237.429 C 108.641 237.549,108.800 237.991,108.800 238.411 C 108.800 240.249,111.287 243.600,112.650 243.600 C 113.772 243.600,118.288 241.113,119.200 239.993 C 121.474 237.200,128.161 234.798,133.646 234.804 C 149.763 234.823,159.428 249.986,156.613 270.837 L 156.311 273.075 159.456 273.356 C 166.620 273.996,170.137 274.516,171.800 275.179 C 173.703 275.939,176.611 277.424,176.733 277.700 C 176.807 277.865,177.091 278.000,177.364 278.000 C 178.611 278.000,182.489 282.664,184.182 286.200 C 185.852 289.687,186.238 290.900,187.182 295.632 L 187.627 297.863 190.913 299.781 C 197.986 303.908,201.004 306.392,203.575 310.200 C 204.862 312.105,206.400 315.358,206.400 316.172 C 206.400 316.491,206.580 316.864,206.800 317.000 C 207.020 317.136,207.200 317.856,207.200 318.600 C 207.200 319.344,207.380 320.064,207.600 320.200 C 207.820 320.336,208.000 321.427,208.000 322.624 L 208.000 324.800 234.762 324.800 L 261.524 324.800 263.227 325.700 C 265.385 326.841,267.085 329.162,267.426 331.433 L 267.691 333.200 277.045 333.200 L 286.400 333.200 286.400 331.984 C 286.400 331.315,286.744 330.100,287.163 329.284 C 290.805 322.204,301.303 323.782,302.553 331.597 L 302.809 333.200 312.205 333.200 L 321.600 333.200 321.600 331.861 C 321.600 330.128,322.435 328.490,324.081 326.997 C 326.352 324.936,326.854 324.800,332.195 324.800 L 337.200 324.800 337.200 316.000 L 337.200 307.200 336.128 307.200 C 335.539 307.200,334.504 307.032,333.828 306.827 C 333.153 306.622,331.790 306.241,330.800 305.981 C 316.198 302.140,310.468 295.017,316.475 288.175 C 319.785 284.406,323.191 284.639,332.095 289.241 C 332.477 289.438,333.141 289.600,333.571 289.600 C 334.001 289.600,334.464 289.780,334.600 290.000 C 334.736 290.220,335.377 290.400,336.024 290.400 L 337.200 290.400 337.200 226.558 L 337.200 162.716 335.700 162.929 C 327.258 164.127,320.332 164.210,317.717 163.143 C 313.787 161.539,312.013 160.423,309.604 158.039 C 307.352 155.810,303.600 150.934,303.600 150.236 C 303.600 148.972,296.733 140.000,295.766 140.000 C 295.261 140.000,292.701 141.291,291.800 142.000 C 285.241 147.161,276.162 148.511,269.302 145.346 C 264.841 143.288,258.400 137.003,258.400 134.708 C 258.400 134.407,258.251 133.989,258.070 133.780 C 256.909 132.445,255.789 125.072,256.350 122.457 C 256.598 121.304,256.800 119.797,256.800 119.109 C 256.800 118.420,256.968 117.304,257.173 116.628 C 257.378 115.953,257.756 114.590,258.012 113.600 C 258.268 112.610,258.640 111.487,258.839 111.105 C 259.038 110.723,259.200 110.059,259.200 109.629 C 259.200 109.199,259.380 108.736,259.600 108.600 C 259.820 108.464,260.000 107.924,260.000 107.400 C 260.000 106.876,260.180 106.336,260.400 106.200 C 260.620 106.064,260.800 105.691,260.800 105.372 C 260.800 105.053,261.178 103.938,261.640 102.896 C 262.551 100.838,262.678 100.547,264.181 97.063 L 265.189 94.726 260.680 90.263 C 255.408 85.046,252.800 80.481,252.800 76.472 L 252.800 75.200 195.638 75.200 L 138.476 75.200 136.773 74.300 C 134.615 73.159,132.915 70.838,132.574 68.567 L 132.309 66.800 122.955 66.800 L 113.600 66.800 113.600 68.016 C 113.600 68.685,113.256 69.900,112.837 70.716 C 109.195 77.796,98.697 76.218,97.447 68.403 L 97.191 66.800 87.795 66.800 L 78.400 66.800 78.400 67.951 M177.093 110.037 C 177.955 110.497,181.243 113.444,184.399 116.586 L 190.138 122.297 196.295 116.249 C 199.681 112.922,202.755 110.138,203.126 110.061 C 203.497 109.985,203.971 109.760,204.180 109.561 C 204.907 108.870,208.706 109.162,210.288 110.031 C 212.313 111.144,235.047 133.801,236.027 135.684 C 238.272 139.995,237.215 142.427,229.865 149.869 L 223.871 155.939 229.774 161.934 C 240.449 172.773,240.491 172.597,223.130 189.865 C 210.528 202.398,210.027 202.796,206.800 202.796 C 203.852 202.796,202.719 202.037,196.584 195.960 C 193.275 192.682,190.402 190.000,190.200 190.000 C 189.998 190.000,187.125 192.683,183.816 195.962 C 177.257 202.463,176.106 203.143,172.497 202.648 C 169.702 202.265,169.105 201.761,156.689 189.317 C 139.934 172.524,139.994 172.782,150.354 162.178 C 153.459 158.999,156.000 156.171,156.000 155.894 C 156.000 155.616,153.473 152.872,150.385 149.795 C 144.002 143.435,143.600 142.818,143.600 139.400 C 143.600 135.791,143.682 135.687,156.686 122.730 C 171.180 108.289,172.398 107.531,177.093 110.037 M283.668 205.732 C 286.720 206.269,289.478 207.959,290.347 209.826 C 290.647 210.472,291.052 211.313,291.247 211.695 C 291.696 212.578,291.705 215.397,291.261 216.305 C 289.988 218.909,289.491 219.540,287.803 220.700 C 285.967 221.961,285.784 222.000,281.778 222.000 C 279.456 222.000,277.539 222.175,277.400 222.400 C 277.264 222.620,276.881 222.800,276.548 222.800 C 275.544 222.800,272.556 225.078,269.904 227.865 C 263.234 234.875,254.400 232.508,254.400 223.711 C 254.400 218.483,266.857 206.800,272.432 206.800 C 272.828 206.800,273.264 206.620,273.400 206.400 C 273.536 206.180,274.402 205.982,275.324 205.960 C 276.246 205.938,277.450 205.776,278.000 205.600 C 279.378 205.159,280.562 205.186,283.668 205.732 M192.670 213.037 C 197.503 214.443,198.800 216.984,198.800 225.053 C 198.800 228.410,199.065 232.432,199.435 234.704 C 200.812 243.145,198.262 247.384,191.800 247.394 C 184.751 247.406,182.326 241.854,182.272 225.580 C 182.242 216.492,183.939 213.725,190.338 212.428 C 190.415 212.413,191.464 212.687,192.670 213.037 M305.251 233.769 C 307.107 234.551,309.600 237.048,309.600 238.125 C 309.600 238.408,309.760 238.811,309.957 239.020 C 310.153 239.229,310.424 240.480,310.560 241.800 C 310.696 243.120,310.973 245.460,311.177 247.000 C 312.026 253.428,312.428 256.331,312.781 258.600 C 313.856 265.508,313.708 266.482,311.143 269.404 C 306.027 275.231,298.008 271.663,296.748 263.000 C 294.746 249.245,293.924 241.494,294.264 239.600 C 295.115 234.861,300.750 231.871,305.251 233.769 M245.488 245.241 C 250.945 248.274,251.628 254.050,247.139 259.209 C 239.850 267.584,233.783 272.069,227.200 273.946 C 226.430 274.166,225.080 274.551,224.200 274.801 C 222.544 275.273,214.786 275.138,211.815 274.587 C 203.753 273.090,201.674 263.920,208.335 259.235 C 209.530 258.394,210.033 258.309,213.135 258.419 C 218.563 258.612,222.069 258.492,222.971 258.083 C 227.095 256.212,226.824 256.424,232.600 250.562 C 238.991 244.077,241.517 243.033,245.488 245.241 " stroke="none" fill="#f3c3ac" fill-rule="evenodd"></path><path id="path2" d="M62.800 241.847 L 62.800 324.800 127.400 324.800 C 183.819 324.800,192.000 324.726,192.000 324.215 C 192.000 321.717,189.034 317.320,186.400 315.913 C 175.878 310.292,172.792 306.756,171.223 298.520 C 169.737 290.724,169.180 290.331,158.585 289.605 C 143.912 288.599,139.150 283.293,140.452 269.400 C 141.418 259.099,140.253 254.005,136.393 251.652 C 134.466 250.478,132.515 250.560,130.536 251.900 C 129.642 252.505,127.528 253.935,125.839 255.077 C 119.769 259.182,112.059 260.934,107.557 259.231 C 102.757 257.415,100.102 255.300,97.174 250.961 C 96.088 249.352,95.200 247.936,95.200 247.814 C 95.200 247.691,94.822 246.738,94.360 245.696 C 93.166 243.000,92.952 242.422,92.399 240.400 C 92.129 239.410,91.765 238.150,91.590 237.600 C 91.263 236.566,90.686 233.563,90.017 229.400 C 89.423 225.709,88.806 213.759,88.820 206.200 C 88.846 191.745,84.607 176.828,78.419 169.600 C 73.837 164.247,69.766 161.286,64.500 159.477 L 62.800 158.894 62.800 241.847 " stroke="none" fill="#80ccab" fill-rule="evenodd"></path><path id="path3" d="M26.973 37.300 C 25.072 38.589,23.355 41.115,23.715 42.093 C 23.818 42.372,24.037 42.060,24.203 41.400 C 24.614 39.765,27.507 37.073,29.427 36.539 C 30.744 36.172,30.828 36.093,29.945 36.051 C 29.348 36.022,28.059 36.563,26.973 37.300 M33.207 36.613 C 37.181 37.838,38.785 40.849,38.794 47.100 L 38.800 51.200 31.214 51.200 L 23.627 51.200 23.491 46.900 L 23.355 42.600 23.378 47.000 L 23.400 51.400 31.300 51.508 L 39.200 51.617 39.200 47.057 C 39.200 40.111,36.571 35.898,32.316 36.028 C 31.738 36.045,32.066 36.261,33.207 36.613 M365.136 36.809 C 361.849 38.545,360.800 41.025,360.800 47.057 L 360.800 51.617 368.700 51.508 L 376.600 51.400 376.621 47.099 L 376.643 42.798 376.508 46.999 L 376.373 51.200 368.786 51.200 L 361.200 51.200 361.206 47.100 C 361.215 40.849,362.819 37.838,366.793 36.613 C 368.052 36.225,368.297 36.053,367.600 36.046 C 367.050 36.040,365.941 36.383,365.136 36.809 M370.573 36.539 C 372.493 37.073,375.386 39.765,375.797 41.400 C 375.963 42.060,376.182 42.372,376.285 42.093 C 376.915 40.379,372.339 35.941,370.055 36.051 C 369.172 36.093,369.256 36.172,370.573 36.539 M97.462 68.200 C 98.329 74.671,106.021 77.525,110.937 73.200 C 112.373 71.937,113.606 69.566,113.581 68.116 C 113.565 67.170,113.467 67.274,112.940 68.800 C 110.135 76.925,100.401 76.796,97.866 68.600 C 97.277 66.698,97.258 66.678,97.462 68.200 M132.604 68.400 C 132.880 70.702,134.514 73.029,136.711 74.249 L 138.421 75.200 195.611 75.200 L 252.800 75.200 252.800 76.472 C 252.800 80.481,255.408 85.046,260.680 90.263 L 265.189 94.726 264.181 97.063 C 262.678 100.547,262.551 100.838,261.640 102.896 C 261.178 103.938,260.800 105.053,260.800 105.372 C 260.800 105.691,260.620 106.064,260.400 106.200 C 260.180 106.336,260.000 106.876,260.000 107.400 C 260.000 107.924,259.820 108.464,259.600 108.600 C 259.380 108.736,259.200 109.199,259.200 109.629 C 259.200 110.059,259.038 110.723,258.839 111.105 C 258.640 111.487,258.268 112.610,258.012 113.600 C 257.756 114.590,257.378 115.953,257.173 116.628 C 256.968 117.304,256.800 118.420,256.800 119.109 C 256.800 119.797,256.598 121.304,256.350 122.457 C 255.789 125.072,256.909 132.445,258.070 133.780 C 258.251 133.989,258.400 134.407,258.400 134.708 C 258.400 137.003,264.841 143.288,269.302 145.346 C 276.162 148.511,285.241 147.161,291.800 142.000 C 292.701 141.291,295.261 140.000,295.766 140.000 C 296.733 140.000,303.600 148.972,303.600 150.236 C 303.600 150.934,307.352 155.810,309.604 158.039 C 312.013 160.423,313.787 161.539,317.717 163.143 C 320.332 164.210,327.258 164.127,335.700 162.929 L 337.200 162.716 337.200 226.558 L 337.200 290.400 336.024 290.400 C 335.377 290.400,334.736 290.220,334.600 290.000 C 334.464 289.780,334.001 289.600,333.571 289.600 C 333.141 289.600,332.477 289.438,332.095 289.241 C 323.191 284.639,319.785 284.406,316.475 288.175 C 310.468 295.017,316.198 302.140,330.800 305.981 C 331.790 306.241,333.153 306.622,333.828 306.827 C 334.504 307.032,335.539 307.200,336.128 307.200 L 337.200 307.200 337.200 316.000 L 337.200 324.800 332.195 324.800 C 326.854 324.800,326.352 324.936,324.081 326.997 C 322.440 328.486,321.588 330.150,321.641 331.761 L 321.682 333.000 321.974 331.800 C 322.602 329.221,324.134 327.196,326.400 325.950 C 327.027 325.605,329.263 325.325,332.400 325.200 L 337.400 325.000 337.400 316.033 L 337.400 307.066 332.400 305.798 C 318.296 302.221,312.312 296.885,315.447 290.680 C 317.843 285.938,321.928 284.850,327.209 287.547 C 330.624 289.291,334.430 290.701,336.200 290.879 L 337.400 291.000 337.400 226.600 L 337.400 162.200 335.600 162.325 C 334.610 162.394,333.112 162.629,332.272 162.848 C 322.175 165.476,311.405 161.449,306.074 153.051 C 305.218 151.703,303.457 148.914,302.159 146.853 C 297.050 138.738,296.600 138.541,290.909 141.925 C 280.544 148.089,274.204 148.303,266.000 142.765 C 254.755 135.175,254.037 122.048,263.642 99.663 C 264.719 97.153,265.600 94.927,265.600 94.716 C 265.600 94.505,263.558 92.323,261.063 89.866 C 256.075 84.957,254.848 82.979,253.620 77.867 L 252.932 75.000 195.566 74.800 C 141.921 74.613,138.117 74.555,136.921 73.900 C 135.228 72.975,133.818 71.055,133.030 68.600 L 132.387 66.600 132.604 68.400 M15.600 200.000 L 15.600 332.800 31.200 332.800 L 46.800 332.800 46.800 200.000 L 46.800 67.200 31.200 67.200 L 15.600 67.200 15.600 200.000 M77.714 68.866 C 76.569 73.201,74.301 74.532,67.600 74.800 L 62.600 75.000 62.498 108.912 C 62.416 135.857,62.499 142.849,62.898 142.950 C 63.174 143.020,65.020 143.470,67.000 143.950 C 77.182 146.419,89.564 155.947,94.073 164.784 C 94.358 165.343,95.055 166.610,95.621 167.600 C 99.926 175.124,103.106 186.219,104.392 198.200 L 104.736 201.400 104.594 197.600 C 104.204 187.161,100.626 175.232,94.815 165.000 C 93.890 163.372,92.418 161.162,92.017 160.800 C 91.895 160.690,91.276 159.903,90.641 159.052 C 84.762 151.171,72.430 143.604,64.000 142.707 L 63.000 142.600 62.898 108.900 L 62.795 75.200 67.736 75.200 C 73.210 75.200,74.185 74.915,76.240 72.719 C 77.678 71.181,78.521 69.262,78.333 67.952 C 78.234 67.265,78.075 67.499,77.714 68.866 M353.200 200.000 L 353.200 332.800 368.800 332.800 L 384.400 332.800 384.400 200.000 L 384.400 67.200 368.800 67.200 L 353.200 67.200 353.200 200.000 M170.000 110.058 C 168.198 111.090,144.961 134.227,144.186 135.761 C 142.097 139.899,143.389 142.823,150.385 149.795 C 153.473 152.872,156.000 155.616,156.000 155.894 C 156.000 156.171,153.459 158.999,150.354 162.178 C 143.317 169.381,142.086 172.190,144.189 176.244 C 144.939 177.689,168.231 201.060,169.693 201.835 C 174.098 204.168,176.577 203.137,183.816 195.962 C 187.125 192.683,189.998 190.000,190.200 190.000 C 190.402 190.000,193.275 192.682,196.584 195.960 C 202.719 202.037,203.852 202.796,206.800 202.796 C 210.027 202.796,210.528 202.398,223.130 189.865 C 240.491 172.597,240.449 172.773,229.774 161.934 L 223.871 155.939 229.865 149.869 C 237.215 142.427,238.272 139.995,236.027 135.684 C 235.047 133.801,212.313 111.144,210.288 110.031 C 208.706 109.162,204.907 108.870,204.180 109.561 C 203.971 109.760,203.497 109.985,203.126 110.061 C 202.755 110.138,199.681 112.922,196.295 116.249 L 190.138 122.297 184.399 116.586 C 176.771 108.994,174.030 107.751,170.000 110.058 M176.953 110.479 C 177.493 110.766,180.656 113.672,183.982 116.938 C 189.338 122.197,190.104 122.814,190.696 122.338 C 191.064 122.042,193.803 119.392,196.782 116.448 C 206.961 106.392,206.528 106.279,223.668 123.489 C 240.093 139.981,239.967 139.306,228.707 150.457 C 225.898 153.239,223.600 155.710,223.600 155.949 C 223.600 156.188,226.165 159.008,229.300 162.216 C 239.772 172.932,239.892 172.422,222.944 189.281 C 206.470 205.668,206.757 205.600,196.718 195.511 C 193.793 192.572,191.090 189.932,190.712 189.644 C 190.101 189.180,189.362 189.785,184.165 195.001 C 176.720 202.474,174.607 203.507,170.600 201.635 C 168.639 200.718,145.052 177.146,144.423 175.474 C 142.916 171.464,143.942 169.390,150.957 162.272 C 154.171 159.011,156.800 156.183,156.800 155.988 C 156.800 155.792,154.167 152.981,150.949 149.741 C 143.973 142.720,142.913 140.575,144.419 136.526 C 145.024 134.898,168.619 111.302,170.600 110.344 C 172.367 109.490,175.198 109.550,176.953 110.479 M167.880 133.934 C 165.086 136.758,162.800 139.236,162.800 139.440 C 162.800 139.644,165.333 142.328,168.428 145.405 C 175.646 152.579,176.976 155.380,174.990 159.220 C 174.654 159.869,174.528 160.400,174.709 160.400 C 175.264 160.400,176.000 157.847,176.000 155.920 C 176.000 152.976,175.147 151.695,169.399 146.000 C 166.401 143.030,163.768 140.276,163.549 139.880 C 163.141 139.143,172.496 129.200,173.598 129.200 C 173.845 129.200,176.422 131.588,179.324 134.508 C 184.949 140.166,186.683 141.605,187.862 141.591 C 188.284 141.586,187.915 141.262,187.000 140.833 C 186.065 140.396,183.075 137.740,179.805 134.442 C 176.728 131.339,173.929 128.800,173.586 128.800 C 173.242 128.800,170.674 131.110,167.880 133.934 M200.595 134.442 C 197.325 137.740,194.335 140.396,193.400 140.833 C 192.520 141.245,192.034 141.586,192.320 141.591 C 193.517 141.611,195.297 140.156,200.595 134.827 C 203.672 131.732,206.422 129.200,206.707 129.200 C 207.797 129.200,217.232 139.195,216.828 139.922 C 216.622 140.295,213.998 143.030,210.999 146.000 C 207.999 148.970,205.287 151.886,204.972 152.480 C 204.376 153.605,204.165 158.607,204.700 158.939 C 204.865 159.042,204.938 158.051,204.863 156.737 C 204.647 152.958,204.837 152.647,211.431 145.969 C 214.824 142.533,217.600 139.574,217.600 139.395 C 217.600 138.780,207.440 128.800,206.814 128.800 C 206.471 128.800,203.672 131.339,200.595 134.442 M205.200 159.992 C 205.200 160.128,207.990 163.082,211.400 166.555 C 214.810 170.029,217.600 172.727,217.600 172.551 C 217.600 172.375,214.810 169.422,211.400 165.987 C 207.990 162.553,205.200 159.855,205.200 159.992 M168.414 166.586 C 165.237 169.768,162.720 172.423,162.819 172.486 C 162.919 172.549,165.603 169.945,168.785 166.700 C 171.967 163.455,174.485 160.800,174.380 160.800 C 174.275 160.800,171.591 163.404,168.414 166.586 M189.305 170.287 C 189.914 170.379,190.814 170.377,191.305 170.282 C 191.797 170.187,191.300 170.111,190.200 170.114 C 189.100 170.117,188.697 170.195,189.305 170.287 M186.600 170.860 C 186.160 171.099,183.077 173.994,179.750 177.293 L 173.699 183.291 168.618 178.210 C 165.824 175.416,163.464 173.202,163.375 173.291 C 163.286 173.380,165.557 175.772,168.422 178.606 L 173.630 183.760 179.715 177.722 C 183.062 174.400,186.340 171.402,187.000 171.058 C 187.660 170.714,188.020 170.430,187.800 170.428 C 187.580 170.426,187.040 170.620,186.600 170.860 M193.600 171.236 C 194.370 171.694,197.632 174.683,200.849 177.879 C 204.904 181.906,206.794 183.533,207.011 183.182 C 207.193 182.887,207.162 182.776,206.935 182.917 C 206.721 183.049,203.948 180.544,200.773 177.351 C 195.607 172.155,193.518 170.397,192.520 170.401 C 192.344 170.402,192.830 170.778,193.600 171.236 M211.264 178.661 C 209.649 180.311,208.398 181.732,208.485 181.818 C 208.572 181.905,210.069 180.541,211.812 178.788 C 213.555 177.035,214.805 175.614,214.591 175.631 C 214.376 175.648,212.879 177.012,211.264 178.661 M104.863 211.212 C 104.777 224.018,105.879 232.578,108.465 239.200 C 110.801 245.181,112.751 245.441,119.200 240.633 C 138.479 226.259,158.597 241.139,156.297 268.073 C 155.767 274.288,155.383 273.835,161.466 274.172 C 176.679 275.014,184.146 281.173,186.454 294.782 C 186.958 297.751,188.029 299.034,191.467 300.784 C 200.672 305.472,205.733 312.130,207.290 321.600 L 207.849 325.000 234.824 325.200 C 259.526 325.383,261.908 325.459,263.079 326.100 C 264.772 327.025,266.182 328.945,266.970 331.400 L 267.613 333.400 267.396 331.600 C 267.120 329.298,265.486 326.971,263.289 325.751 L 261.579 324.800 234.789 324.800 L 208.000 324.800 208.000 322.624 C 208.000 321.427,207.820 320.336,207.600 320.200 C 207.380 320.064,207.200 319.344,207.200 318.600 C 207.200 317.856,207.020 317.136,206.800 317.000 C 206.580 316.864,206.400 316.491,206.400 316.172 C 206.400 315.358,204.862 312.105,203.575 310.200 C 201.004 306.392,197.986 303.908,190.913 299.781 L 187.627 297.863 187.182 295.632 C 186.238 290.900,185.852 289.687,184.182 286.200 C 182.489 282.664,178.611 278.000,177.364 278.000 C 177.091 278.000,176.807 277.865,176.733 277.700 C 176.611 277.424,173.703 275.939,171.800 275.179 C 170.137 274.516,166.620 273.996,159.456 273.356 L 156.311 273.075 156.613 270.837 C 159.048 252.802,152.497 239.390,139.298 235.385 C 133.263 233.553,122.418 236.040,119.200 239.993 C 118.288 241.113,113.772 243.600,112.650 243.600 C 111.287 243.600,108.800 240.249,108.800 238.411 C 108.800 237.991,108.641 237.549,108.446 237.429 C 108.251 237.308,107.990 236.713,107.864 236.105 C 107.739 235.497,107.437 234.100,107.194 233.000 C 106.951 231.900,106.599 230.010,106.412 228.800 C 106.224 227.590,105.951 225.880,105.804 225.000 C 105.657 224.120,105.399 218.540,105.232 212.600 L 104.926 201.800 104.863 211.212 M278.000 205.600 C 277.450 205.776,276.246 205.938,275.324 205.960 C 274.402 205.982,273.536 206.180,273.400 206.400 C 273.264 206.620,272.828 206.800,272.432 206.800 C 266.857 206.800,254.400 218.483,254.400 223.711 C 254.400 232.508,263.234 234.875,269.904 227.865 C 272.556 225.078,275.544 222.800,276.548 222.800 C 276.881 222.800,277.264 222.620,277.400 222.400 C 277.539 222.175,279.456 222.000,281.778 222.000 C 285.784 222.000,285.967 221.961,287.803 220.700 C 289.491 219.540,289.988 218.909,291.261 216.305 C 291.705 215.397,291.696 212.578,291.247 211.695 C 291.052 211.313,290.647 210.472,290.347 209.826 C 288.922 206.765,281.884 204.356,278.000 205.600 M286.865 207.233 C 294.908 211.337,291.036 221.730,281.541 221.526 C 276.893 221.426,274.851 222.409,269.885 227.140 C 267.629 229.289,265.616 230.867,264.940 231.016 C 264.313 231.154,263.544 231.348,263.231 231.448 C 260.943 232.173,256.796 229.879,255.424 227.128 C 250.425 217.107,275.329 201.348,286.865 207.233 M188.078 213.179 C 183.334 214.795,182.244 217.122,182.272 225.580 C 182.326 241.854,184.751 247.406,191.800 247.394 C 198.262 247.384,200.812 243.145,199.435 234.704 C 199.065 232.432,198.800 228.410,198.800 225.053 C 198.800 218.572,198.430 217.140,196.199 214.973 C 195.138 213.943,191.233 212.247,190.338 212.428 C 190.262 212.443,189.245 212.781,188.078 213.179 M194.878 214.634 C 197.795 216.694,198.163 217.936,198.263 226.059 C 198.311 229.948,198.550 233.872,198.794 234.779 C 199.623 237.858,199.384 241.772,198.265 243.418 C 194.305 249.246,185.978 247.707,184.348 240.847 C 182.832 234.465,182.244 221.028,183.364 218.349 C 185.404 213.467,190.774 211.735,194.878 214.634 M298.486 234.049 C 293.396 236.568,293.252 238.975,296.748 263.000 C 298.008 271.663,306.027 275.231,311.143 269.404 C 313.708 266.482,313.856 265.508,312.781 258.600 C 312.428 256.331,312.026 253.428,311.177 247.000 C 310.973 245.460,310.696 243.120,310.560 241.800 C 310.424 240.480,310.153 239.229,309.957 239.020 C 309.760 238.811,309.600 238.408,309.600 238.125 C 309.600 237.590,308.778 236.467,307.400 235.120 C 305.328 233.094,301.375 232.619,298.486 234.049 M304.851 234.169 C 307.887 235.449,309.458 237.999,310.043 242.600 C 310.239 244.140,310.580 246.840,310.800 248.600 C 311.356 253.044,311.882 256.877,312.418 260.400 C 314.437 273.652,299.645 276.389,297.351 263.188 C 295.720 253.794,294.350 240.975,294.810 239.400 C 296.109 234.956,300.855 232.484,304.851 234.169 M238.600 245.062 C 237.940 245.408,235.240 247.883,232.600 250.562 C 226.824 256.424,227.095 256.212,222.971 258.083 C 222.069 258.492,218.563 258.612,213.135 258.419 C 202.207 258.030,201.019 272.583,211.815 274.587 C 214.786 275.138,222.544 275.273,224.200 274.801 C 225.080 274.551,226.430 274.166,227.200 273.946 C 233.783 272.069,239.850 267.584,247.139 259.209 C 251.628 254.050,250.945 248.274,245.488 245.241 C 243.660 244.225,240.359 244.139,238.600 245.062 M244.191 245.246 C 249.092 246.607,251.046 252.924,247.909 257.267 C 238.255 270.630,223.918 277.191,211.623 273.872 C 205.198 272.139,202.963 266.720,206.514 261.491 C 208.052 259.227,209.654 258.811,216.463 258.911 L 222.600 259.000 225.200 257.624 C 227.138 256.599,229.092 254.934,232.873 251.087 C 238.953 244.899,240.348 244.179,244.191 245.246 M290.885 325.384 C 288.493 326.704,286.387 329.767,286.414 331.884 C 286.426 332.762,286.595 332.539,287.209 330.832 C 290.022 323.008,299.651 323.374,302.134 331.400 C 302.723 333.302,302.742 333.322,302.538 331.800 C 301.839 326.583,295.267 322.964,290.885 325.384 M23.372 348.928 C 23.261 349.219,23.229 351.244,23.301 353.428 L 23.433 357.400 23.516 353.100 L 23.600 348.800 31.200 348.800 L 38.800 348.800 38.800 352.806 C 38.800 362.357,32.091 367.059,26.310 361.561 C 24.443 359.784,24.190 359.660,24.814 360.827 C 26.297 363.597,31.555 364.855,34.778 363.211 C 38.136 361.498,39.200 359.029,39.200 352.951 L 39.200 348.400 31.387 348.400 C 25.282 348.400,23.531 348.515,23.372 348.928 M360.800 352.943 C 360.800 359.030,361.863 361.497,365.222 363.211 C 368.445 364.855,373.703 363.597,375.186 360.827 C 375.811 359.658,375.558 359.784,373.676 361.574 C 367.893 367.075,361.200 362.371,361.200 352.806 L 361.200 348.800 368.786 348.800 L 376.372 348.800 376.509 352.900 L 376.646 357.000 376.623 352.800 L 376.600 348.600 368.700 348.492 L 360.800 348.383 360.800 352.943 M23.612 358.000 C 23.612 358.330,23.787 358.870,24.000 359.200 C 24.345 359.733,24.388 359.733,24.388 359.200 C 24.388 358.870,24.213 358.330,24.000 358.000 C 23.655 357.467,23.612 357.467,23.612 358.000 M375.800 358.400 C 375.650 358.873,375.617 359.350,375.727 359.460 C 375.837 359.570,376.050 359.273,376.200 358.800 C 376.350 358.327,376.383 357.850,376.273 357.740 C 376.163 357.630,375.950 357.927,375.800 358.400 " stroke="none" fill="#c38b64" fill-rule="evenodd"></path><path id="path4" d="M168.076 134.205 C 162.252 140.068,162.107 138.777,169.399 146.000 C 178.586 155.101,178.573 156.613,169.221 166.113 C 166.019 169.366,163.343 172.193,163.272 172.397 C 163.202 172.600,165.521 175.133,168.425 178.025 L 173.706 183.284 179.753 177.257 C 185.952 171.079,187.505 170.000,190.200 170.000 C 192.895 170.000,194.448 171.079,200.647 177.257 L 206.694 183.284 211.947 178.053 C 214.836 175.176,217.200 172.736,217.200 172.632 C 217.200 172.528,214.585 169.787,211.390 166.542 C 201.689 156.690,201.661 155.245,210.999 146.000 C 213.998 143.030,216.622 140.295,216.828 139.922 C 217.232 139.195,207.797 129.200,206.707 129.200 C 206.422 129.200,203.672 131.732,200.595 134.827 C 190.852 144.627,189.361 144.605,179.324 134.508 C 176.422 131.588,173.812 129.211,173.524 129.224 C 173.236 129.237,170.784 131.478,168.076 134.205 " stroke="none" fill="#f85b7a" fill-rule="evenodd"></path><path id="path5" d="M29.427 36.539 C 25.461 37.643,23.600 41.025,23.600 47.128 L 23.600 51.200 31.200 51.200 L 38.800 51.200 38.794 47.100 C 38.785 40.734,37.190 37.822,33.038 36.589 C 31.947 36.265,31.042 36.023,31.027 36.051 C 31.012 36.078,30.292 36.298,29.427 36.539 M366.793 36.613 C 362.819 37.838,361.215 40.849,361.206 47.100 L 361.200 51.200 368.800 51.200 L 376.400 51.200 376.400 47.128 C 376.400 41.247,374.379 37.380,370.941 36.686 C 370.314 36.560,369.530 36.366,369.200 36.256 C 368.870 36.146,367.787 36.306,366.793 36.613 M23.600 352.872 C 23.600 360.647,26.900 364.397,32.858 363.390 C 36.882 362.710,38.800 359.294,38.800 352.806 L 38.800 348.800 31.200 348.800 L 23.600 348.800 23.600 352.872 M361.200 352.806 C 361.200 360.724,364.248 364.314,370.209 363.419 C 374.315 362.804,376.400 359.252,376.400 352.872 L 376.400 348.800 368.800 348.800 L 361.200 348.800 361.200 352.806 " stroke="none" fill="#ecb643" fill-rule="evenodd"></path><path id="path6" d="M268.991 75.215 C 268.574 75.890,269.782 77.377,272.893 80.018 C 277.263 83.729,278.997 85.775,280.812 89.362 C 281.527 90.775,281.615 97.029,280.940 98.441 C 280.688 98.969,280.212 100.030,279.883 100.800 C 279.554 101.570,278.921 103.010,278.478 104.000 C 271.832 118.830,270.644 127.402,274.849 130.185 C 277.108 131.680,278.133 131.492,283.020 128.686 C 296.835 120.758,305.271 123.103,314.369 137.400 C 319.339 145.209,320.612 146.990,321.600 147.516 C 323.337 148.441,331.727 147.694,336.902 146.154 C 337.566 145.956,337.599 144.002,337.502 110.472 L 337.400 75.000 303.325 74.898 C 279.861 74.827,269.169 74.926,268.991 75.215 M62.599 242.000 L 62.600 325.000 127.179 325.101 C 162.697 325.157,191.893 325.067,192.059 324.901 C 192.224 324.736,163.209 324.646,127.581 324.702 L 62.802 324.805 62.700 241.902 L 62.597 159.000 62.599 242.000 M69.633 161.730 C 69.725 161.801,70.430 162.266,71.200 162.763 L 72.600 163.666 71.400 162.635 C 70.740 162.068,70.035 161.603,69.833 161.602 C 69.632 161.601,69.542 161.658,69.633 161.730 M75.600 166.525 C 75.600 166.594,76.185 167.179,76.900 167.825 L 78.200 169.000 77.025 167.700 C 75.930 166.488,75.600 166.216,75.600 166.525 M88.937 202.200 C 88.939 203.960,89.009 204.630,89.093 203.689 C 89.178 202.749,89.177 201.309,89.091 200.489 C 89.005 199.670,88.936 200.440,88.937 202.200 M88.955 211.000 C 88.956 213.860,89.020 214.978,89.097 213.483 C 89.174 211.989,89.174 209.649,89.096 208.283 C 89.018 206.918,88.955 208.140,88.955 211.000 M89.293 222.000 C 89.293 222.770,89.375 223.085,89.476 222.700 C 89.576 222.315,89.576 221.685,89.476 221.300 C 89.375 220.915,89.293 221.230,89.293 222.000 M89.709 226.400 C 89.709 227.390,89.787 227.795,89.882 227.300 C 89.978 226.805,89.978 225.995,89.882 225.500 C 89.787 225.005,89.709 225.410,89.709 226.400 M99.983 254.500 C 100.964 255.545,101.819 256.400,101.883 256.400 C 102.184 256.400,101.866 256.041,100.100 254.383 L 98.200 252.600 99.983 254.500 M111.700 259.876 C 112.085 259.976,112.715 259.976,113.100 259.876 C 113.485 259.775,113.170 259.693,112.400 259.693 C 111.630 259.693,111.315 259.775,111.700 259.876 M140.937 263.400 C 140.939 265.160,141.009 265.830,141.093 264.889 C 141.178 263.949,141.177 262.509,141.091 261.689 C 141.005 260.870,140.936 261.640,140.937 263.400 M140.501 269.000 C 140.505 269.880,140.587 270.193,140.683 269.695 C 140.779 269.198,140.775 268.478,140.675 268.095 C 140.575 267.713,140.496 268.120,140.501 269.000 M140.109 273.600 C 140.109 274.590,140.187 274.995,140.282 274.500 C 140.378 274.005,140.378 273.195,140.282 272.700 C 140.187 272.205,140.109 272.610,140.109 273.600 M144.000 284.600 C 144.746 285.370,145.447 286.000,145.557 286.000 C 145.667 286.000,145.146 285.370,144.400 284.600 C 143.654 283.830,142.953 283.200,142.843 283.200 C 142.733 283.200,143.254 283.830,144.000 284.600 M151.200 288.782 C 151.530 289.005,152.145 289.191,152.567 289.194 C 153.590 289.202,153.271 288.973,151.800 288.644 C 150.924 288.448,150.762 288.485,151.200 288.782 M155.905 289.483 C 156.402 289.579,157.122 289.575,157.505 289.475 C 157.887 289.375,157.480 289.296,156.600 289.301 C 155.720 289.305,155.407 289.387,155.905 289.483 M161.107 289.890 C 161.826 289.979,162.906 289.977,163.507 289.886 C 164.108 289.795,163.520 289.722,162.200 289.724 C 160.880 289.726,160.388 289.801,161.107 289.890 M187.600 316.525 C 187.600 316.594,188.185 317.179,188.900 317.825 L 190.200 319.000 189.025 317.700 C 187.930 316.488,187.600 316.216,187.600 316.525 " stroke="none" fill="#4a80c7" fill-rule="evenodd"></path></g></svg>